<?plantuml 1.2026.2?><svg xmlns="http://www.w3.org/2000/svg" xmlns:xlink="http://www.w3.org/1999/xlink" contentStyleType="text/css" data-diagram-type="DESCRIPTION" height="1030px" preserveAspectRatio="none" style="width:3686px;height:1030px;background:#FFFFFF;" version="1.1" viewBox="0 0 3686 1030" width="3686.6667px" zoomAndPan="magnify"><title>Hermes Delegation &#8212; Worker Runtime Components</title><defs/><g><g class="title" data-source-line="4"><text fill="#000000" font-family="Inter" font-size="23.3333" font-weight="bold" lengthAdjust="spacing" textLength="678.9909" x="1492.6129" y="38.3252">Hermes Delegation &#8212; Worker Runtime Components</text></g><!--cluster Host--><g class="cluster" data-qualified-name="Host" data-source-line="24" id="ent0003"><polygon fill="#F7FAFF" points="26.6667,176.4281,43.3333,159.7615,3659.2167,159.7615,3659.2167,896.4281,3642.55,913.0948,26.6667,913.0948,26.6667,176.4281" style="stroke:#181818;stroke-width:1.6667;"/><line style="stroke:#181818;stroke-width:1.6667;" x1="3642.55" x2="3659.2167" y1="176.4281" y2="159.7615"/><line style="stroke:#181818;stroke-width:1.6667;" x1="26.6667" x2="3642.55" y1="176.4281" y2="176.4281"/><line style="stroke:#181818;stroke-width:1.6667;" x1="3642.55" x2="3642.55" y1="176.4281" y2="913.0948"/><text fill="#000000" font-family="Inter" font-size="21.6667" font-weight="bold" lengthAdjust="spacing" textLength="153.0737" x="1759.7381" y="201.5396">Worker Host</text></g><!--cluster Mounts--><g class="cluster" data-qualified-name="Host.Mounts" data-source-line="25" id="ent0004"><path d="M78.3333,238.0948 L323.7199,238.0948 A17.5,17.5 0 0 1 335.3866,249.7615 L347.0532,273.3161 L495.5167,273.3161 A11.6667,11.6667 0 0 1 507.1833,284.9828 L507.1833,861.4281 A11.6667,11.6667 0 0 1 495.5167,873.0948 L78.3333,873.0948 A11.6667,11.6667 0 0 1 66.6667,861.4281 L66.6667,249.7615 A11.6667,11.6667 0 0 1 78.3333,238.0948" fill="#F7FAFF" style="stroke:#6A8EBB;stroke-width:2.5;"/><line style="stroke:#6A8EBB;stroke-width:2.5;" x1="66.6667" x2="347.0532" y1="273.3161" y2="273.3161"/><text fill="#000000" font-family="Inter" font-size="21.6667" font-weight="bold" lengthAdjust="spacing" textLength="258.7199" x="73.3333" y="261.5396">Host-mounted inputs</text></g><!--cluster Worker--><g class="cluster" data-qualified-name="Host.Worker" data-source-line="33" id="ent0010"><rect fill="#EEF7E8" height="275" rx="11.6667" ry="11.6667" style="stroke:#3E5F8A;stroke-width:1.6667;" width="2703.7" x="915.5167" y="426.4281"/><text fill="#000000" font-family="Inter" font-size="21.6667" font-weight="bold" lengthAdjust="spacing" textLength="309.2472" x="2112.7431" y="449.8729">hermes-worker container</text></g><!--entity Keys--><g class="entity" data-qualified-name="Host.Mounts.Keys" data-source-line="26" id="ent0005"><rect fill="#FDFEFF" height="58.5547" rx="11.6667" ry="11.6667" style="stroke:#181818;stroke-width:0.8333;" width="319.2318" x="127.3167" y="553.8281"/><text fill="#000000" font-family="Inter" font-size="21.6667" lengthAdjust="spacing" textLength="285.8984" x="143.9833" y="590.6063">/.pzagent/authorized_keys</text></g><!--entity Auth--><g class="entity" data-qualified-name="Host.Mounts.Auth" data-source-line="27" id="ent0006"><rect fill="#FDFEFF" height="58.5547" rx="11.6667" ry="11.6667" style="stroke:#181818;stroke-width:0.8333;" width="387.1834" x="93.3333" y="787.1615"/><text fill="#000000" font-family="Inter" font-size="21.6667" lengthAdjust="spacing" textLength="353.8501" x="110" y="823.9396">/.local/share/opencode/auth.json</text></g><!--entity Env--><g class="entity" data-qualified-name="Host.Mounts.Env" data-source-line="28" id="ent0007"><rect fill="#FDFEFF" height="58.5547" rx="11.6667" ry="11.6667" style="stroke:#181818;stroke-width:0.8333;" width="271.7936" x="151.0333" y="670.4948"/><text fill="#000000" font-family="Inter" font-size="21.6667" lengthAdjust="spacing" textLength="238.4603" x="167.7" y="707.2729">/.pzagent/.worker-env</text></g><!--entity WS--><g class="entity" data-qualified-name="Host.Mounts.WS" data-source-line="29" id="ent0008"><rect fill="#FDFEFF" height="58.5547" rx="11.6667" ry="11.6667" style="stroke:#181818;stroke-width:0.8333;" width="354.6517" x="109.6" y="437.1615"/><text fill="#000000" font-family="Inter" font-size="21.6667" lengthAdjust="spacing" textLength="321.3184" x="126.2667" y="473.9396">/pzagent_work -&gt; /workspace</text></g><!--entity SRCM--><g class="entity" data-qualified-name="Host.Mounts.SRCM" data-source-line="30" id="ent0009"><rect fill="#FDFEFF" height="83.776" rx="11.6667" ry="11.6667" style="stroke:#181818;stroke-width:0.8333;" width="271.3387" x="151.25" y="294.5448"/><text fill="#000000" font-family="Inter" font-size="21.6667" lengthAdjust="spacing" textLength="238.0054" x="167.9167" y="331.3229">/pzagent_work/source</text><text fill="#000000" font-family="Inter" font-size="21.6667" lengthAdjust="spacing" textLength="235.8789" x="167.9167" y="356.5443">-&gt; /workspace/source</text></g><!--entity SSH--><g class="entity" data-qualified-name="Host.Worker.SSH" data-source-line="34" id="ent0011"><rect fill="#F8FCF6" height="58.5547" rx="11.6667" ry="11.6667" style="stroke:#181818;stroke-width:0.8333;" width="210.4753" x="942.1833" y="553.8281"/><text fill="#000000" font-family="Inter" font-size="21.6667" lengthAdjust="spacing" textLength="177.1419" x="958.85" y="590.6063">OpenSSH server</text></g><!--entity Agent--><g class="entity" data-qualified-name="Host.Worker.Agent" data-source-line="35" id="ent0012"><rect fill="#F8FCF6" height="58.5547" rx="11.6667" ry="11.6667" style="stroke:#181818;stroke-width:0.8333;" width="292.9631" x="1366" y="572.1615"/><text fill="#000000" font-family="Inter" font-size="21.6667" lengthAdjust="spacing" textLength="259.6297" x="1382.6667" y="608.9396">pzagent (UID/GID 1000)</text></g><!--entity Scripts--><g class="entity" data-qualified-name="Host.Worker.Scripts" data-source-line="36" id="ent0013"><rect fill="#F8FCF6" height="58.5547" rx="11.6667" ry="11.6667" style="stroke:#181818;stroke-width:0.8333;" width="318.5441" x="1875.6167" y="583.8281"/><text fill="#000000" font-family="Inter" font-size="21.6667" lengthAdjust="spacing" textLength="285.2108" x="1892.2833" y="620.6063">run-delegated-task scripts</text></g><!--entity OpenCode--><g class="entity" data-qualified-name="Host.Worker.OpenCode" data-source-line="37" id="ent0014"><rect fill="#F8FCF6" height="58.5547" rx="11.6667" ry="11.6667" style="stroke:#181818;stroke-width:0.8333;" width="187.1476" x="2581.1333" y="600.4948"/><text fill="#000000" font-family="Inter" font-size="21.6667" lengthAdjust="spacing" textLength="153.8143" x="2597.8" y="637.2729">OpenCode CLI</text></g><!--entity Tooling--><g class="entity" data-qualified-name="Host.Worker.Tooling" data-source-line="38" id="ent0015"><rect fill="#F8FCF6" height="58.5547" rx="11.6667" ry="11.6667" style="stroke:#181818;stroke-width:0.8333;" width="271.9735" x="3278.75" y="615.4948"/><text fill="#000000" font-family="Inter" font-size="21.6667" lengthAdjust="spacing" textLength="238.6401" x="3295.4167" y="652.2729">gh / git / tmux / jq / rg</text></g><!--entity Source--><g class="entity" data-qualified-name="Host.Worker.Source" data-source-line="40" id="ent0016"><path d="M3236.9167,499.6615 C3236.9167,482.9948 3414.7345,482.9948 3414.7345,482.9948 C3414.7345,482.9948 3592.5522,482.9948 3592.5522,499.6615 L3592.5522,539.8828 C3592.5522,556.5495 3414.7345,556.5495 3414.7345,556.5495 C3414.7345,556.5495 3236.9167,556.5495 3236.9167,539.8828 L3236.9167,499.6615" fill="#FBFFFA" style="stroke:#181818;stroke-width:0.8333;"/><path d="M3236.9167,499.6615 C3236.9167,516.3281 3414.7345,516.3281 3414.7345,516.3281 C3414.7345,516.3281 3592.5522,516.3281 3592.5522,499.6615" fill="none" style="stroke:#181818;stroke-width:0.8333;"/><text fill="#000000" font-family="Inter" font-size="21.6667" lengthAdjust="spacing" textLength="322.3022" x="3253.5833" y="543.1063">/workspace/source/&lt;project&gt;</text></g><!--entity Runs--><g class="entity" data-qualified-name="Host.Worker.Runs" data-source-line="41" id="ent0017"><rect fill="#FBFFFA" height="51.888" rx="11.6667" ry="11.6667" style="stroke:#181818;stroke-width:0.8333;" width="391.0856" x="2482.5" y="490.4948"/><rect fill="#FBFFFA" height="51.888" rx="11.6667" ry="11.6667" style="stroke:#181818;stroke-width:0.8333;" width="391.0856" x="2475.8333" y="483.8281"/><text fill="#000000" font-family="Inter" font-size="21.6667" lengthAdjust="spacing" textLength="364.4189" x="2489.1667" y="517.2729">/workspace/delegations/&lt;run-id&gt;</text></g><!--entity Operator--><g class="entity" data-qualified-name="Operator" data-source-line="22" id="ent0002"><rect fill="#EAF5FF" height="58.5547" rx="11.6667" ry="11.6667" style="stroke:#3E5F8A;stroke-width:0.8333;" width="235.6437" x="169.1" y="73.8281"/><text fill="#000000" font-family="Inter" font-size="21.6667" lengthAdjust="spacing" textLength="202.3104" x="185.7667" y="110.6063">Operator / Hermes</text></g><!--entity GitHub--><g class="entity" data-qualified-name="GitHub" data-source-line="45" id="ent0018"><path d="M3368.616,955.9037 C3373.7592,944.2501 3381.278,942.1234 3390.3138,951.9766 C3398.1315,940.0356 3408.0928,939.1372 3416.1321,951.7435 C3424.3679,939.1432 3435.5613,941.7698 3442.5552,953.114 C3449.6149,942.2383 3461.7043,943.8565 3467.2254,954.8497 C3479.1747,961.303 3481.092,972.0842 3469.0203,980.2359 C3478.4279,990.3008 3477.2897,997.6511 3464.6217,1003.5513 C3456.8434,1014.3219 3448.2671,1015.8551 3439.5497,1004.6213 C3434.3154,1017.215 3425.6873,1019.7687 3416.1767,1008.8771 C3407.3302,1018.3016 3400.25,1018.0457 3393.449,1006.6448 C3384.0945,1017.995 3373.5701,1019.3986 3365.9229,1004.8316 C3351.8091,997.1071 3351.7614,987.1454 3365.0929,978.554 C3356.1881,970.3483 3356.5873,960.8534 3368.616,955.9037" fill="#FFF4E8" style="stroke:#181818;stroke-width:0.8333;"/><text fill="#000000" font-family="Inter" font-size="21.6667" lengthAdjust="spacing" textLength="75.0822" x="3377.2" y="985.6063">GitHub</text></g><!--link Operator to SSH--><g class="link" data-entity-1="ent0002" data-entity-2="ent0011" data-link-type="dependency" data-source-line="47" id="lnk19"><path d="M335.95,133.1281 C471.9333,219.3281 854.0038,461.5411 989.9705,547.7245" fill="none" id="Operator-to-SSH" style="stroke:#365A88;stroke-width:1.6667;"/><polygon fill="#365A88" points="998.4167,553.0781,989.3165,539.4168,991.3782,548.6167,982.1783,550.6784,998.4167,553.0781" style="stroke:#365A88;stroke-width:1.6667;"/><text fill="#000000" font-family="Inter" font-size="21.6667" lengthAdjust="spacing" textLength="353.1519" x="535.5167" y="265.5063">SSH command / start-delegation</text></g><!--link SSH to Agent--><g class="link" data-entity-1="ent0011" data-entity-2="ent0012" data-link-type="dependency" data-source-line="48" id="lnk20"><path d="M1153.2833,587.2448 C1215.9167,589.7281 1286.5745,592.5314 1355.4245,595.2648" fill="none" id="SSH-to-Agent" style="stroke:#365A88;stroke-width:1.6667;"/><polygon fill="#365A88" points="1365.4167,595.6615,1350.6929,588.405,1357.0899,595.3309,1350.164,601.7278,1365.4167,595.6615" style="stroke:#365A88;stroke-width:1.6667;"/><text fill="#000000" font-family="Inter" font-size="21.6667" lengthAdjust="spacing" textLength="110.0578" x="1204.3333" y="583.0063">login shell</text></g><!--link Agent to Scripts--><g class="link" data-entity-1="ent0012" data-entity-2="ent0013" data-link-type="dependency" data-source-line="49" id="lnk21"><path d="M1659.4333,604.6948 C1726.6167,606.2115 1796.5525,607.7883 1865.2358,609.3216" fill="none" id="Agent-to-Scripts" style="stroke:#365A88;stroke-width:1.6667;"/><polygon fill="#365A88" points="1875.2333,609.5448,1860.3859,602.545,1866.9021,609.3588,1860.0883,615.875,1875.2333,609.5448" style="stroke:#365A88;stroke-width:1.6667;"/><text fill="#000000" font-family="Inter" font-size="21.6667" lengthAdjust="spacing" textLength="114.9666" x="1710.6167" y="599.3229">invoke run</text></g><!--link Scripts to OpenCode--><g class="link" data-entity-1="ent0013" data-entity-2="ent0014" data-link-type="dependency" data-source-line="50" id="lnk22"><path d="M2194.7167,617.2448 C2316.2,620.4281 2469.8034,624.4507 2570.7534,627.084" fill="none" id="Scripts-to-OpenCode" style="stroke:#365A88;stroke-width:1.6667;"/><polygon fill="#365A88" points="2580.75,627.3448,2565.9289,620.2892,2572.4195,627.1275,2565.5813,633.618,2580.75,627.3448" style="stroke:#365A88;stroke-width:1.6667;"/><text fill="#000000" font-family="Inter" font-size="21.6667" lengthAdjust="spacing" textLength="139.4474" x="2265.8333" y="612.4063">execute task</text></g><!--link OpenCode to Tooling--><g class="link" data-entity-1="ent0014" data-entity-2="ent0015" data-link-type="dependency" data-source-line="51" id="lnk23"><path d="M2768.9333,631.6448 C2897.4333,634.2615 3120.6854,638.8074 3268.4521,641.824" fill="none" id="OpenCode-to-Tooling" style="stroke:#365A88;stroke-width:1.6667;"/><polygon fill="#365A88" points="3278.45,642.0281,3263.5892,635.0567,3270.1184,641.858,3263.3171,648.3872,3278.45,642.0281" style="stroke:#365A88;stroke-width:1.6667;"/><text fill="#000000" font-family="Inter" font-size="21.6667" lengthAdjust="spacing" textLength="199.7607" x="2956.0833" y="628.4896">vcs + shell tooling</text></g><!--link OpenCode to Source--><g class="link" data-entity-1="ent0014" data-entity-2="ent0016" data-link-type="dependency" data-source-line="52" id="lnk24"><path d="M2768.9333,615.9448 C2885.8333,598.4948 3079.5597,569.5722 3226.6097,547.6056" fill="none" id="OpenCode-to-Source" style="stroke:#365A88;stroke-width:1.6667;"/><polygon fill="#365A88" points="3236.5,546.1281,3220.6797,541.7508,3228.2581,547.3593,3222.6496,554.9378,3236.5,546.1281" style="stroke:#365A88;stroke-width:1.6667;"/><text fill="#000000" font-family="Inter" font-size="21.6667" lengthAdjust="spacing" textLength="150.1644" x="2980.25" y="548.7896">code changes</text></g><!--link Scripts to Runs--><g class="link" data-entity-1="ent0013" data-entity-2="ent0017" data-link-type="dependency" data-source-line="53" id="lnk25"><path d="M2194.7167,588.2615 C2281.6,574.5948 2380.1376,559.1121 2471.771,544.7288" fill="none" id="Scripts-to-Runs" style="stroke:#365A88;stroke-width:1.6667;"/><polygon fill="#365A88" points="2481.65,543.1781,2465.7977,538.9181,2473.4175,544.4704,2467.8652,552.0902,2481.65,543.1781" style="stroke:#365A88;stroke-width:1.6667;"/><text fill="#000000" font-family="Inter" font-size="21.6667" lengthAdjust="spacing" textLength="179.554" x="2245.8333" y="547.5896">write logs/status</text></g><!--link OpenCode to GitHub--><g class="link" data-entity-1="ent0014" data-entity-2="ent0018" data-link-type="dependency" data-source-line="54" id="lnk26"><path d="M2739.8167,659.7615 C2879.7833,725.9448 3204.4428,879.4539 3342.5595,944.7539" fill="none" id="OpenCode-to-GitHub" style="stroke:#365A88;stroke-width:1.6667;"/><polygon fill="#365A88" points="3351.6,949.0281,3340.8887,936.5897,3344.0662,945.4662,3335.1897,948.6438,3351.6,949.0281" style="stroke:#365A88;stroke-width:1.6667;"/><text fill="#000000" font-family="Inter" font-size="21.6667" lengthAdjust="spacing" textLength="260.0423" x="2925.25" y="745.8229">push branch / create PR</text></g><!--link Keys to SSH--><g class="link" data-entity-1="ent0005" data-entity-2="ent0011" data-link-type="dependency" data-source-line="56" id="lnk27"><path d="M447.3167,583.0948 C596.05,583.0948 804.0833,583.0948 931.8167,583.0948" fill="none" id="Keys-to-SSH" style="stroke:#365A88;stroke-width:1.6667;"/><polygon fill="#365A88" points="941.8167,583.0948,926.8167,576.4281,933.4833,583.0948,926.8167,589.7615,941.8167,583.0948" style="stroke:#365A88;stroke-width:1.6667;"/></g><!--link Auth to OpenCode--><g class="link" data-entity-1="ent0006" data-entity-2="ent0014" data-link-type="dependency" data-source-line="57" id="lnk28"><path d="M480.6833,805.2781 C633.6833,797.3448 853.3667,788.0948 1045.75,788.0948 C1045.75,788.0948 1045.75,788.0948 2036.5667,788.0948 C2246.9333,788.0948 2475.8485,709.3166 2592.1652,663.3999" fill="none" id="Auth-to-OpenCode" style="stroke:#365A88;stroke-width:1.6667;"/><polygon fill="#365A88" points="2601.4667,659.7281,2585.0666,659.0349,2593.7154,662.788,2589.9623,671.4368,2601.4667,659.7281" style="stroke:#365A88;stroke-width:1.6667;"/></g><!--link Env to Scripts--><g class="link" data-entity-1="ent0007" data-entity-2="ent0013" data-link-type="dependency" data-source-line="58" id="lnk29"><path d="M423.5167,700.0615 C669.4833,699.6615 1207.1667,694.4448 1658.95,659.7615 C1730.1167,654.3115 1798.6201,646.3429 1865.2201,637.5096" fill="none" id="Env-to-Scripts" style="stroke:#365A88;stroke-width:1.6667;"/><polygon fill="#365A88" points="1875.1333,636.1948,1859.387,631.5582,1866.8723,637.2905,1861.1401,644.7758,1875.1333,636.1948" style="stroke:#365A88;stroke-width:1.6667;"/></g><!--link WS to Runs--><g class="link" data-entity-1="ent0008" data-entity-2="ent0017" data-link-type="dependency" data-source-line="59" id="lnk30"><path d="M464.5333,468.2615 C617.9833,469.6781 846.6,471.4281 1045.75,471.4281 C1045.75,471.4281 1045.75,471.4281 2036.5667,471.4281 C2183.8333,471.4281 2339.9202,481.8198 2465.4702,492.6364" fill="none" id="WS-to-Runs" style="stroke:#365A88;stroke-width:1.6667;"/><polygon fill="#365A88" points="2475.4333,493.4948,2461.0609,485.5652,2467.1308,492.7795,2459.9165,498.8493,2475.4333,493.4948" style="stroke:#365A88;stroke-width:1.6667;"/></g><!--link SRCM to Source--><g class="link" data-entity-1="ent0009" data-entity-2="ent0016" data-link-type="dependency" data-source-line="60" id="lnk31"><path d="M423.3833,351.1781 C459.2333,354.5781 497.9833,357.7781 533.85,359.7615 C761.05,372.4115 818.2167,368.0948 1045.75,368.0948 C1045.75,368.0948 1045.75,368.0948 2676.3833,368.0948 C2902.2833,368.0948 3149.7602,434.3629 3292.6602,479.2795" fill="none" id="SRCM-to-Source" style="stroke:#365A88;stroke-width:1.6667;"/><polygon fill="#365A88" points="3302.2,482.2781,3289.8893,471.4204,3294.2501,479.7793,3285.8912,484.1401,3302.2,482.2781" style="stroke:#365A88;stroke-width:1.6667;"/></g><?plantuml-src fLNRRjD047tVhnYb3u2GwqQq9OgWKfhQjEAg1iGBKhMrfyuscrspkqul2CH7y8Ly2RDhEtMQ1Y7X1sSzCsTczimbZ-3b_ppi4HoZcQE58vHOS2UqWWXEA-N4766ivwLMg9mbm_yBv8IJ-42mtpz_mMTjPcWUYYhnme7JO4GnTP0BWvb7CMPdGfNSy3cSysnM65sfVAobDh2LXgTZaPS2-lix7OcTybnV2LN01PSMkxPumIlfKgtSEqwvd2Y7vc7zHDmYz9zrb26BJ1j5b-dlTXGZO_HLazwp_RtHO71V-N4gifb2Qw7VKPLqDrxWnDqGT_xkN1MocsxMKhNPvBIL7MgJescpIFRImUX1i_jy9acwky9dgYKvMd6tFneaXuVhDckrUPwEo1TR9WgzzoKQxaWPDztH0svXATrAHkcUXoYTatNJAiVQkc3d3wrR-CO0Ba9Ww7b5DAVG3dEWh2fNEtxhHJQOmXrzqFiHRvUtnBLoCQ_SL1kgRdusmviQzfeE5ESeJIYNTQZK6PSnjPN1M9UeCaes-Dc-j5e53oFw-ek7DlZsLRXXX6eHO8bQR4Ore3EFWUW0Od-mr3KOi9yd_mQDhQvCXb_KYej66ZnDJiTlExw-CterpGczQIXRL2TEKPJZWaQWJg4M-YPwdWpMQQSwgyda62oQHGFndrlf81sd-_UjcwJXyQUJe_ZLoH7qTtPsdjJq1iK6dAbKbDSx1_F8SJi3cnbHDZqngS-Rq3x7iU--yPkJjZbhmGP0CQLcBeIZjvjNr_Hp-PLUfWZeZrfBltfQS43dtF5pRedDjGB4BqgZBsbW3kfaWv3GXxJbHareAUl5Q5Vm-NBDslY5vq3ajG_QjBRZuJkZWcPILpdqNWbtN9q7g_eO5kfkCc1iEPCHzOclqZ2ywU9phdAwe7NSkEWkAlDgRrmNPmXI5qBHzaKfMIqBhXhwXpId2psZDLOHj15wWoNVGy1hp2g7u6l8bd9lrD8wX4LcuMaTXVuxWdJLjA5m27vC8PlI9aAx4Z4GD8Gh8oWMPMrZkfkhxAgVXg0Xb9MTmhdXAlELpmnIdy67KyR2scZeOc43TE_3_71t660qi6rq5aRkBbls1m00?></g></svg>